<svg width="48" height="48" viewBox="0 0 48 48" fill="none" xmlns="http://www.w3.org/2000/svg">
<rect width="48" height="48" rx="24" fill="#01370C"/>
<path d="M26.9849 15C27.2938 15.0234 27.6027 15.0469 27.9111 15.0712C28.1027 15.0867 28.2935 15.1064 28.4894 15.1247V17.9879C28.4107 17.9879 28.3371 17.9879 28.263 17.9879C27.6537 17.9977 27.0444 17.9804 26.438 18.0254C25.7856 18.0723 25.4012 18.4116 25.36 19.0645C25.3042 19.9494 25.3459 20.8403 25.3459 21.7482H28.2227C28.0887 22.8262 27.9575 23.8784 27.8243 24.946H25.3309C25.3258 25.0103 25.3178 25.0604 25.3178 25.1106C25.3178 27.6874 25.3178 30.2652 25.3178 32.8439C25.3178 32.896 25.3276 32.948 25.3323 33H22.0984C22.1017 32.9475 22.1077 32.895 22.1077 32.843C22.1077 30.2724 22.1077 27.7016 22.1077 25.1307V24.9582H19.5107V21.7571H22.1087C22.1087 21.6732 22.1087 21.6057 22.1087 21.5382C22.1167 20.5957 22.0913 19.6513 22.142 18.7111C22.2015 17.605 22.5816 16.6193 23.4543 15.8774C24.0369 15.375 24.7296 15.1317 25.4818 15.0352C25.5386 15.0281 25.5934 15.0117 25.6506 15H26.9849Z" fill="white"/>
</svg>
