<svg width="48" height="48" viewBox="0 0 48 48" fill="none" xmlns="http://www.w3.org/2000/svg">
<rect width="48" height="48" rx="24" fill="#01370C"/>
<path d="M20.4081 12H27.5835C28.1438 12.0311 28.704 12.0603 29.2643 12.0942C30.243 12.1516 31.2044 12.3201 32.1036 12.725C34.3112 13.7179 35.4741 15.4862 35.8356 17.8313C35.8997 18.2456 35.9298 18.6651 35.9769 19.0817V28.7429C35.9628 28.8503 35.9472 28.9576 35.9345 29.065C35.8724 29.5913 35.8455 30.1257 35.7396 30.6436C35.2631 32.9373 33.9675 34.5667 31.7628 35.425C30.7063 35.8364 29.5933 35.9485 28.4728 35.9598C25.9334 35.9857 23.3934 36.0097 20.8535 35.996C19.6059 35.9895 18.3521 35.9843 17.1248 35.6867C15.1375 35.2042 13.6616 34.0771 12.784 32.2165C12.244 31.0715 12.0778 29.8394 12.0656 28.5914C12.0383 25.9949 12.0096 23.3999 12.0303 20.8039C12.0335 19.7105 12.1121 18.6187 12.2657 17.5361C12.5124 15.8605 13.3217 14.4637 14.6959 13.4326C15.8729 12.5489 17.2382 12.1977 18.6793 12.0956C19.2551 12.0551 19.8318 12.0315 20.4081 12ZM24.0285 33.892V33.8553C24.6617 33.8553 25.2954 33.8742 25.9277 33.8516C27.285 33.8045 28.6527 33.8181 29.9968 33.6501C31.8433 33.4189 33.0956 32.3596 33.5494 30.5216C33.7326 29.7792 33.7961 28.9929 33.8093 28.2246C33.8508 25.8104 33.8627 23.3955 33.8451 20.98C33.845 20.0044 33.7863 19.0296 33.6695 18.061C33.4242 16.1303 32.2204 14.8248 30.3179 14.4448C29.4968 14.281 28.6437 14.2316 27.8034 14.2179C25.7017 14.1826 23.5992 14.1892 21.4947 14.1963C20.2923 14.2 19.0866 14.1845 17.895 14.394C16.0758 14.7146 14.8277 15.8695 14.4558 17.6835C14.2953 18.4655 14.2425 19.2785 14.2256 20.0793C14.1846 22.0011 14.1691 23.9248 14.1908 25.8471C14.2058 27.2049 14.2416 28.5673 14.3715 29.9181C14.4987 31.2363 15.121 32.3267 16.2783 33.0451C17.0607 33.5305 17.9402 33.7249 18.8465 33.7574C20.5738 33.8191 22.3007 33.8478 24.0285 33.892Z" fill="white"/>
<path d="M17.847 24.0053C17.8521 20.5967 20.6294 17.8285 24.0285 17.8426C27.4451 17.8567 30.2044 20.6288 30.1833 24.0256C30.1621 27.4355 27.4107 30.1807 24.0158 30.1775C20.611 30.1727 17.8418 27.4026 17.847 24.0053ZM20.0202 24.0053C20.0193 24.796 20.253 25.5692 20.6917 26.227C21.1304 26.8848 21.7544 27.3977 22.4847 27.7008C23.215 28.0039 24.0188 28.0836 24.7944 27.9298C25.57 27.7759 26.2825 27.3955 26.8418 26.8366C27.4011 26.2777 27.782 25.5654 27.9364 24.7899C28.0908 24.0145 28.0117 23.2106 27.7091 22.4801C27.4065 21.7496 26.8941 21.1253 26.2366 20.6861C25.579 20.2469 24.806 20.0127 24.0153 20.013C23.4906 20.0116 22.9707 20.114 22.4856 20.3141C22.0004 20.5143 21.5596 20.8083 21.1884 21.1792C20.8172 21.5502 20.5229 21.9908 20.3224 22.4757C20.122 22.9607 20.0192 23.4805 20.0202 24.0053Z" fill="white"/>
<path d="M30.4582 16.1623C30.835 16.1758 31.1914 16.337 31.4505 16.611C31.7095 16.8851 31.8504 17.25 31.8428 17.627C31.8351 18.004 31.6795 18.3629 31.4095 18.6261C31.1396 18.8894 30.7769 19.036 30.3998 19.0342C30.2093 19.0333 30.0209 18.9945 29.8455 18.92C29.6701 18.8456 29.5113 18.737 29.3783 18.6007C29.2453 18.4643 29.1407 18.3028 29.0707 18.1256C29.0007 17.9484 28.9667 17.7591 28.9705 17.5686C28.9744 17.3781 29.0161 17.1903 29.0933 17.0161C29.1704 16.8419 29.2815 16.6848 29.4199 16.5539C29.5584 16.4231 29.7214 16.321 29.8997 16.2538C30.078 16.1866 30.2678 16.1555 30.4582 16.1623Z" fill="white"/>
</svg>
